<svg xmlns="http://www.w3.org/2000/svg" viewBox="0 0 64 64" role="img" aria-label="Spotter Flights">
  <defs>
    <linearGradient id="g" x1="12" y1="12" x2="52" y2="52" gradientUnits="userSpaceOnUse">
      <stop stop-color="#008080" />
      <stop offset="1" stop-color="#F84960" />
    </linearGradient>
  </defs>
  <circle cx="32" cy="32" r="22" fill="url(#g)" />
  <path
    d="M45.2 29.8c1.8.6 1.8 3.2 0 3.8l-8.9 2.8 1.7 5.8c.4 1.2-.7 2.3-1.9 2l-2.9-.7c-.6-.1-1-.5-1.2-1l-3.5-6-8 2.5c-.8.3-1.6 0-2.1-.7l-1.1-1.5c-.7-.9-.3-2.1.8-2.5l6.4-2-2.5-7.8c-.4-1.2.7-2.3 1.9-2l2.9.7c.6.1 1 .5 1.2 1l4.6 7.9 13.1-4.1Z"
    fill="#fff"
  />
</svg>
