<svg xmlns="http://www.w3.org/2000/svg" viewBox="0 0 64 64" role="img" aria-label="Spotter Flights">
  <defs>
    <linearGradient id="bg" x1="10" y1="10" x2="54" y2="54" gradientUnits="userSpaceOnUse">
      <stop stop-color="#008080" />
      <stop offset="1" stop-color="#F84960" />
    </linearGradient>
    <filter id="soft" x="-20%" y="-20%" width="140%" height="140%">
      <feDropShadow dx="0" dy="1" stdDeviation="1.5" flood-color="#000" flood-opacity="0.22" />
    </filter>
  </defs>

  <!-- rounded square background -->
  <rect x="6" y="6" width="52" height="52" rx="14" fill="url(#bg)" />

  <!-- simplified plane mark optimized for small sizes -->
  <g filter="url(#soft)" fill="#fff">
    <path d="M46.8 30.4c1.9.6 1.9 3.3 0 3.9l-9.5 3 1.9 6.1c.4 1.2-.7 2.4-2 2.1l-3.1-.7c-.6-.1-1-.5-1.3-1l-3.7-6.4-8.6 2.7c-.8.3-1.7 0-2.2-.7l-1.2-1.6c-.7-.9-.3-2.2.8-2.6l6.9-2.2-2.6-8.3c-.4-1.2.7-2.4 2-2.1l3.1.7c.6.1 1 .5 1.3 1l4.9 8.4 14.2-4.5Z" />
    <path d="M20.2 46.9c-1.4 0-2.4-1.1-2.4-2.4 0-1.4 1.1-2.4 2.4-2.4h25.4c1.4 0 2.4 1.1 2.4 2.4 0 1.4-1.1 2.4-2.4 2.4H20.2Z" opacity="0.22" />
  </g>
</svg>
